<?xml version="1.0" encoding="UTF-8"?>
<svg version="1.1" xmlns="http://www.w3.org/2000/svg" width="225" height="225">
<path d="M0 0 C74.25 0 148.5 0 225 0 C225 74.25 225 148.5 225 225 C150.75 225 76.5 225 0 225 C0 150.75 0 76.5 0 0 Z " fill="#FEFEFE" transform="translate(0,0)"/>
<path d="M0 0 C9.67773552 0.04725858 19.24269001 1.94059055 28.7288208 3.66653442 C32.2297981 4.30317206 35.73341312 4.92473128 39.23684692 5.54768372 C41.0713477 5.87409305 42.90571779 6.20123772 44.73995972 6.52909851 C54.3611962 8.24854366 63.99131156 9.91441948 73.625 11.5625 C74.46272949 11.70628082 75.30045898 11.85006165 76.16357422 11.99819946 C85.71583918 13.63565505 95.27453698 15.21686751 104.8515625 16.703125 C105.73127716 16.83996201 106.61099182 16.97679901 107.5173645 17.11778259 C111.72195667 17.77034574 115.92754042 18.4149957 120.13525391 19.04711914 C121.63706374 19.27737959 123.13885514 19.50776023 124.640625 19.73828125 C125.94547852 19.93462158 127.25033203 20.13096191 128.59472656 20.33325195 C132.81950635 21.16045826 135.92862798 21.92862798 139 25 C139.31664898 34.02939265 136.84370681 43.48381318 135.3125 52.375 C134.76738111 55.55953186 134.22469244 58.74447017 133.68359375 61.9296875 C133.54455627 62.74657043 133.4055188 63.56345337 133.26226807 64.40509033 C132.24819142 70.40949536 131.31542841 76.4236484 130.41015625 82.4453125 C130.02329658 84.9771264 129.63526115 87.50875754 129.24691772 90.04034424 C129.00011213 91.67257838 128.75902771 93.30568845 128.52383423 94.93963623 C128.19463612 97.22266627 127.84547974 99.50184314 127.4921875 101.78125 C127.20384033 103.7312793 127.20384033 103.7312793 126.90966797 105.72070312 C125.87028267 109.46762298 125.34832157 110.98451832 122 113 C118.92261456 113.12777538 116.01903457 112.55506046 113 112 C111.18272682 111.72559277 109.3650806 111.45364761 107.54711914 111.18383789 C105.54276491 110.8657455 103.53879219 110.54524218 101.53515625 110.22265625 C100.46180527 110.05124619 99.38845428 109.87983612 98.28257751 109.70323181 C96.02423605 109.3420207 93.76606478 108.97974407 91.50805664 108.61645508 C88.07681821 108.06480199 84.64490349 107.51751506 81.21289062 106.97070312 C79.00777055 106.61744927 76.80269105 106.26394201 74.59765625 105.91015625 C73.58381363 105.74862564 72.56997101 105.58709503 71.52540588 105.42066956 C66.13213772 104.55002812 60.77901665 103.57026398 55.42686462 102.47648621 C51.35942849 101.67789316 47.26772324 101.04757481 43.171875 100.4140625 C41.31052999 100.12225938 39.44920248 99.83034462 37.58789062 99.53833008 C36.63245361 99.38909088 35.6770166 99.23985168 34.69262695 99.08609009 C26.95647183 97.87388599 19.2249196 96.63237147 11.49243164 95.39703369 C9.2837541 95.04520081 7.07462478 94.69644254 4.86523438 94.34912109 C1.74043552 93.85341832 -1.3801656 93.3383707 -4.5 92.8125 C-5.3446582 92.68246582 -6.18931641 92.55243164 -7.05957031 92.41845703 C-11.53652844 91.63656845 -14.28970506 90.75875114 -17 87 C-17.25 84.25 -17.25 84.25 -17 82 C-17.928125 82.0825 -18.85625 82.165 -19.8125 82.25 C-23 82 -23 82 -24.5559082 80.37207031 C-26.25048957 77.58854494 -27.24929734 74.88565452 -28.29296875 71.796875 C-28.72270996 70.55357422 -29.15245117 69.31027344 -29.59521484 68.02929688 C-29.93598053 67.04255981 -29.93598053 67.04255981 -30.28363037 66.03588867 C-31.50312021 62.5701561 -32.80917086 59.13771968 -34.11328125 55.703125 C-34.37551483 55.00940796 -34.63774841 54.31569092 -34.90792847 53.60095215 C-35.98529854 50.7508977 -37.06469858 47.90162863 -38.14770508 45.05371094 C-38.95163376 42.93793506 -39.75150928 40.82066358 -40.55078125 38.703125 C-40.79758133 38.0574054 -41.04438141 37.41168579 -41.29866028 36.74639893 C-43 32.22697518 -43 32.22697518 -43 30 C-39.2514371 28.5795111 -35.50088628 27.16434128 -31.75 25.75 C-30.70585938 25.35425781 -29.66171875 24.95851563 -28.5859375 24.55078125 C-8.53304303 17 -8.53304303 17 -5 17 C-4.96261719 16.26394531 -4.92523438 15.52789062 -4.88671875 14.76953125 C-4.17280453 4.17280453 -4.17280453 4.17280453 0 0 Z " fill="#034BAF" transform="translate(71,91)"/>
<path d="M0 0 C3.6869649 2.73888821 4.90140953 5.6056381 6 10 C6 11.32 6 12.64 6 14 C-18.03721718 23.15878665 -42.10024144 32.22899801 -66.35083008 40.81079102 C-73.94207063 43.51188833 -81.50054557 46.29297522 -89.046875 49.1171875 C-90.0102478 49.47745026 -90.97362061 49.83771301 -91.96618652 50.20889282 C-96.78978332 52.01390118 -101.61111415 53.82469141 -106.4296875 55.64306641 C-108.21870356 56.3142514 -110.00776411 56.98531783 -111.796875 57.65625 C-112.60727234 57.96416473 -113.41766968 58.27207947 -114.25262451 58.58932495 C-119.11942621 60.40911489 -123.9361947 61.83042991 -129 63 C-129.70365602 61.4447088 -130.38729378 59.88035173 -131.0625 58.3125 C-131.44535156 57.44238281 -131.82820313 56.57226562 -132.22265625 55.67578125 C-133.12931963 52.55485453 -133.1981382 51.02291772 -132 48 C-127.81264252 44.61661516 -122.25912676 43.0860248 -117.25 41.25 C-116.22922363 40.87149902 -115.20844727 40.49299805 -114.15673828 40.10302734 C-110.440375 38.72836446 -106.72049956 37.36341288 -103 36 C-101.4482316 35.43069293 -99.89647429 34.86135562 -98.34472656 34.29199219 C-88.74307819 30.7702542 -79.13781273 27.2584539 -69.53109741 23.75056458 C-62.9544728 21.34904299 -56.37875934 18.94505658 -49.80493164 16.53588867 C-47.38261665 15.64831183 -44.95993708 14.76172924 -42.53686523 13.8762207 C-37.100867 11.88652262 -31.67115559 9.88269407 -26.25811768 7.83140564 C-24.36220229 7.11299507 -22.46517955 6.39758362 -20.56787109 5.68286133 C-18.21268518 4.79384596 -15.85997326 3.89823787 -13.51025391 2.99487305 C-12.46401855 2.60082275 -11.4177832 2.20677246 -10.33984375 1.80078125 C-9.42581787 1.45184814 -8.51179199 1.10291504 -7.57006836 0.7434082 C-4.8741949 -0.0363899 -2.78990431 -0.25938154 0 0 Z " fill="#3BB6FD" transform="translate(150,40)"/>
<path d="M0 0 C-0.50533825 12.7518948 -2.88599645 25.25256154 -5 37.8125 C-5.55521163 41.13773485 -6.10881402 44.46322913 -6.66088867 47.78898621 C-7.00266777 49.84509763 -7.34646163 51.90087554 -7.69262695 53.95625305 C-8.58496998 59.29481438 -9.37184051 64.62376379 -10 70 C-10.33 70 -10.66 70 -11 70 C-11 68.35 -11 66.7 -11 65 C-11.928125 65.0825 -12.85625 65.165 -13.8125 65.25 C-17 65 -17 65 -18.5559082 63.37207031 C-20.25048957 60.58854494 -21.24929734 57.88565452 -22.29296875 54.796875 C-22.72270996 53.55357422 -23.15245117 52.31027344 -23.59521484 51.02929688 C-23.82239197 50.37147217 -24.04956909 49.71364746 -24.28363037 49.03588867 C-25.50312021 45.5701561 -26.80917086 42.13771968 -28.11328125 38.703125 C-28.37551483 38.00940796 -28.63774841 37.31569092 -28.90792847 36.60095215 C-29.98529854 33.7508977 -31.06469858 30.90162863 -32.14770508 28.05371094 C-32.95163376 25.93793506 -33.75150928 23.82066358 -34.55078125 21.703125 C-34.79758133 21.0574054 -35.04438141 20.41168579 -35.29866028 19.74639893 C-37 15.22697518 -37 15.22697518 -37 13 C-33.2514371 11.5795111 -29.50088628 10.16434128 -25.75 8.75 C-24.70585938 8.35425781 -23.66171875 7.95851563 -22.5859375 7.55078125 C-2.53304303 0 -2.53304303 0 0 0 Z " fill="#3AB6FD" transform="translate(65,108)"/>
<path d="M0 0 C1.03004293 2.78858 2.04930997 5.58030288 3.0625 8.375 C3.35705078 9.1690625 3.65160156 9.963125 3.95507812 10.78125 C4.22900391 11.54179688 4.50292969 12.30234375 4.78515625 13.0859375 C5.04176025 13.7876709 5.29836426 14.4894043 5.56274414 15.21240234 C6.16867127 17.68956508 5.11396143 18.77207714 4 21 C4.66 21.33 5.32 21.66 6 22 C4.515 22.495 4.515 22.495 3 23 C2.67 25.97 2.34 28.94 2 32 C3.98 32.495 3.98 32.495 6 33 C5.505 33.99 5.505 33.99 5 35 C-2.72950025 34.23834722 -10.34691726 33.00661707 -18.00390625 31.71484375 C-19.33622214 31.49185655 -20.66857448 31.26908704 -22.0009613 31.04652405 C-25.47824013 30.46508434 -28.9550215 29.88072255 -32.43170166 29.29571533 C-35.99127689 28.69730374 -39.55132282 28.10170606 -43.11132812 27.50585938 C-50.07467749 26.33996669 -57.03750435 25.17098108 -64 24 C-61.38309152 21.21916996 -59.27191015 20.15970157 -55.63671875 18.90625 C-54.53577881 18.52065918 -53.43483887 18.13506836 -52.30053711 17.73779297 C-51.10823486 17.32932129 -49.91593262 16.92084961 -48.6875 16.5 C-46.16091821 15.61869216 -43.63488952 14.73591282 -41.109375 13.8515625 C-40.45412338 13.62308624 -39.79887177 13.39460999 -39.12376404 13.15921021 C-34.25577924 11.45689092 -29.41266469 9.69337433 -24.578125 7.8984375 C-23.55142448 7.51785187 -23.55142448 7.51785187 -22.50398254 7.12957764 C-19.81856624 6.1332597 -17.13358071 5.13590325 -14.45150757 4.13061523 C-12.59293562 3.43444418 -10.7320628 2.74442514 -8.87109375 2.0546875 C-7.80818115 1.65749512 -6.74526855 1.26030273 -5.65014648 0.85107422 C-3 0 -3 0 0 0 Z " fill="#3DB6FC" transform="translate(164,72)"/>
<path d="M0 0 C6.2066786 0.64549457 12.34588602 1.47091803 18.5 2.5 C19.30953125 2.63019531 20.1190625 2.76039062 20.953125 2.89453125 C26.87883551 3.87883551 26.87883551 3.87883551 28 5 C28.55276191 11.47888383 27.93785115 17.79038938 26 24 C24.38343043 25.61656957 22.67720501 25.20994566 20.4375 25.25 C15.31989901 25.20959789 10.45601363 24.54578668 5.4375 23.625 C4.73488037 23.49899414 4.03226074 23.37298828 3.30834961 23.24316406 C-1.74674904 22.25325096 -1.74674904 22.25325096 -4 20 C-4.12522605 14.78224788 -2.7692935 9.86555712 -1 5 C-0.63893903 3.33911955 -0.29537827 1.67381019 0 0 Z " fill="#EDF5F8" transform="translate(79,104)"/>
<path d="M0 0 C12.99651509 1.39100082 25.84950166 3.59285071 38.73046875 5.78125 C45.47663831 6.92445396 52.23393988 7.98171328 59 9 C58.67 11.97 58.34 14.94 58 18 C50.3978722 17.41522986 42.93933399 16.43714119 35.42578125 15.15234375 C34.37593552 14.97619034 33.32608978 14.80003693 32.24443054 14.61854553 C28.93312522 14.06204399 25.62281242 13.49987434 22.3125 12.9375 C20.05019374 12.5562634 17.78782447 12.17540056 15.52539062 11.79492188 C10.01618981 10.86759646 4.50787087 9.9351909 -1 9 C-0.67 6.03 -0.34 3.06 0 0 Z " fill="#F3F7F9" transform="translate(69,158)"/>
<path d="M0 0 C3 1.9375 3 1.9375 5 5 C5.77713682 9.19952779 5.68462113 12.69595975 3.6875 16.5 C1.13750407 18.76666305 -1.01522421 19.00140965 -4.375 19.3125 C-8.59334314 18.94884973 -10.04884992 17.95115008 -13 15 C-14.55024464 11.89951072 -14.28992015 9.42105782 -14 6 C-10.30130834 0.32867279 -6.71796532 -1.09182993 0 0 Z " fill="#F7FAFB" transform="translate(172,169)"/>
<path d="M0 0 C5.23880078 0.55145271 9.97350697 1.42922093 15 3 C15.24692314 9.57089912 14.97136251 15.68300626 13 22 C11.27904777 23.72095223 9.02836086 23.17199761 6.6875 23.1875 C5.72199219 23.20167969 4.75648437 23.21585938 3.76171875 23.23046875 C0.98480842 22.99873224 -0.63473141 22.42140844 -3 21 C-3 20.01 -3 19.02 -3 18 C-1.35 17.34 0.3 16.68 2 16 C2.33 12.7 2.66 9.4 3 6 C0.64632287 5.3121764 0.64632287 5.3121764 -2 5 C-2.99 5.66 -3.98 6.32 -5 7 C-5 6.34 -5 5.68 -5 5 C-6.32 4.67 -7.64 4.34 -9 4 C-4.545 3.505 -4.545 3.505 0 3 C0 2.01 0 1.02 0 0 Z " fill="#9AD3F2" transform="translate(92,106)"/>
<path d="M0 0 C-0.33 1.98 -0.66 3.96 -1 6 C-1.66 6 -2.32 6 -3 6 C-3.33 8.31 -3.66 10.62 -4 13 C-6.31 13 -8.62 13 -11 13 C-10.01 13.33 -9.02 13.66 -8 14 C-8 14.66 -8 15.32 -8 16 C-8.66 16 -9.32 16 -10 16 C-10.33 16.99 -10.66 17.98 -11 19 C-11.66 18.67 -12.32 18.34 -13 18 C-13.33 18 -13.66 18 -14 18 C-14 18.66 -14 19.32 -14 20 C-14.66 20 -15.32 20 -16 20 C-16.33 20.99 -16.66 21.98 -17 23 C-19.0625 23.6875 -19.0625 23.6875 -21 24 C-21.70365602 22.4447088 -22.38729378 20.88035173 -23.0625 19.3125 C-23.44535156 18.44238281 -23.82820313 17.57226562 -24.22265625 16.67578125 C-25.12931963 13.55485453 -25.1981382 12.02291772 -24 9 C-20.16119796 5.98588357 -15.42045787 4.48910331 -10.875 2.8125 C-10.15957031 2.53986328 -9.44414063 2.26722656 -8.70703125 1.98632812 C-5.67688607 0.85639548 -3.26021399 0 0 0 Z " fill="#1A67BE" transform="translate(42,79)"/>
<path d="M0 0 C-0.22860646 2.58686253 -0.48188792 5.16718692 -0.75 7.75 C-0.8428125 8.84441406 -0.8428125 8.84441406 -0.9375 9.9609375 C-1.3120879 13.39465993 -1.78275972 15.69819952 -3.81640625 18.5234375 C-6.34829623 20.23552053 -7.22119558 20.38289183 -10.1875 19.875 C-11.35152344 19.68744141 -11.35152344 19.68744141 -12.5390625 19.49609375 C-16.37495785 18.72282596 -20.19766469 17.92586415 -24 17 C-24 16.01 -24 15.02 -24 14 C-17.25 12.875 -17.25 12.875 -15 14 C-15.33 13.05125 -15.66 12.1025 -16 11.125 C-17 8 -17 8 -17 6 C-16.21625 5.690625 -15.4325 5.38125 -14.625 5.0625 C-12.07669872 4.07124962 -12.07669872 4.07124962 -10 3 C-9.34 3.66 -8.68 4.32 -8 5 C-7.67 4.67 -7.34 4.34 -7 4 C-7 3.01 -7 2.02 -7 1 C-2.25 0 -2.25 0 0 0 Z " fill="#1A70C6" transform="translate(199,184)"/>
<path d="M0 0 C0.66 2.97 1.32 5.94 2 9 C-8.49043589 14.19880009 -17.84727986 13.9740587 -29 11 C-29 10.34 -29 9.68 -29 9 C-28.45061768 8.79842285 -27.90123535 8.5968457 -27.33520508 8.38916016 C-24.82736323 7.46851647 -22.31992876 6.54676812 -19.8125 5.625 C-18.94818359 5.30789062 -18.08386719 4.99078125 -17.19335938 4.6640625 C-12.10121416 2.79157936 -12.10121416 2.79157936 -7.0625 0.78125 C-4.60937431 -0.14796428 -2.60113485 -0.14863628 0 0 Z " fill="#F4F9FB" transform="translate(155,89)"/>
<path d="M0 0 C4.11432986 0.2420194 6.5318374 0.67129009 9.9375 3.0625 C12.26695766 6.38021242 12.70565089 8.10682951 12.40625 12.06640625 C11.7026198 15.41541539 10.66346536 16.8562352 8 19 C4.98093596 19.87738143 2.13310569 20.36927949 -1 20 C-2.77734375 18.5 -2.77734375 18.5 -4 17 C-3.360625 16.71125 -2.72125 16.4225 -2.0625 16.125 C0.15206079 15.17176549 0.15206079 15.17176549 1 13 C1.09555417 11.54420413 1.12984691 10.0839204 1.125 8.625 C1.12757813 7.85414063 1.13015625 7.08328125 1.1328125 6.2890625 C1.00389788 4.0671811 0.61383717 2.13381492 0 0 Z " fill="#3BB3FA" transform="translate(175,170)"/>
<path d="M0 0 C1.69962891 0.16242188 1.69962891 0.16242188 3.43359375 0.328125 C5.89306719 0.6597394 8.18168759 1.07143922 10.5625 1.75 C10.5625 2.41 10.5625 3.07 10.5625 3.75 C7.17751896 6.94155355 4.30743607 8.75 -0.4375 8.75 C-0.4375 9.74 -0.4375 10.73 -0.4375 11.75 C-3.7375 13.07 -7.0375 14.39 -10.4375 15.75 C-11.53405844 12.46032467 -11.34342971 11.08927854 -10.6875 7.75 C-10.52765625 6.88375 -10.3678125 6.0175 -10.203125 5.125 C-8.35992878 -0.59266991 -5.6368217 -0.58863518 0 0 Z " fill="#2F8CDB" transform="translate(77.4375,91.25)"/>
<path d="M0 0 C-0.33 3.63 -0.66 7.26 -1 11 C-2.588125 11.66 -4.17625 12.32 -5.8125 13 C-6.70582031 13.37125 -7.59914063 13.7425 -8.51953125 14.125 C-11 15 -11 15 -14 15 C-17 8.375 -17 8.375 -17 5 C-14.73117913 4.16080602 -12.46022973 3.32848276 -10.1875 2.5 C-9.54490234 2.26152344 -8.90230469 2.02304688 -8.24023438 1.77734375 C-5.35066261 0.72931254 -3.09923939 0 0 0 Z " fill="#F4FAFB" transform="translate(63,122)"/>
<path d="M0 0 C4.875 0.875 4.875 0.875 6 2 C5.984375 4.21484375 5.984375 4.21484375 5.75 6.9375 C5.68296875 7.83339844 5.6159375 8.72929688 5.546875 9.65234375 C5 12 5 12 2 14 C1.01 14 0.02 14 -1 14 C-1 14.99 -1 15.98 -1 17 C-4.96 16.67 -8.92 16.34 -13 16 C-13.33 14.35 -13.66 12.7 -14 11 C-6.57142857 10.85714286 -6.57142857 10.85714286 -3 12 C-3.061875 10.948125 -3.12375 9.89625 -3.1875 8.8125 C-2.9922214 4.84183507 -2.29674932 3.15803031 0 0 Z " fill="#FBFDFD" transform="translate(90,110)"/>
<path d="M0 0 C1.859375 0.12109375 1.859375 0.12109375 4 1 C5.265625 3.72265625 5.265625 3.72265625 6.25 7.0625 C6.58515625 8.16722656 6.9203125 9.27195312 7.265625 10.41015625 C7.50796875 11.26480469 7.7503125 12.11945313 8 13 C7.67 13.33 7.34 13.66 7 14 C7.66 14.33 8.32 14.66 9 15 C9 15.99 9 16.98 9 18 C5.7 17.34 2.4 16.68 -1 16 C-1.93625685 11.31871573 -1.96972498 8.58415445 -1 4 C-0.34 3.67 0.32 3.34 1 3 C0.67 2.01 0.34 1.02 0 0 Z " fill="#ADDEF4" transform="translate(167,90)"/>
<path d="M0 0 C0.66 0 1.32 0 2 0 C3.63831628 3.73172041 4.05788794 5.68424757 3.3125 9.75 C2 13 2 13 -1 15 C-4.1875 15.125 -4.1875 15.125 -7 15 C-6.34 14.67 -5.68 14.34 -5 14 C-5 12.68 -5 11.36 -5 10 C-6.32 9.34 -7.64 8.68 -9 8 C-6.06337384 6.04224922 -4.4262944 5.43926851 -1 5 C-0.34 5.33 0.32 5.66 1 6 C1 5.34 1 4.68 1 4 C0.01 3.67 -0.98 3.34 -2 3 C-1.34 2.67 -0.68 2.34 0 2 C0 1.34 0 0.68 0 0 Z " fill="#2D95E6" transform="translate(194,189)"/>
<path d="M0 0 C0.33 0.99 0.66 1.98 1 3 C1.66 3.33 2.32 3.66 3 4 C2.34 4.66 1.68 5.32 1 6 C1.99 6.66 2.98 7.32 4 8 C3.67 9.32 3.34 10.64 3 12 C1.41632253 11.85795259 -0.16693318 11.71119847 -1.75 11.5625 C-2.63171875 11.48128906 -3.5134375 11.40007812 -4.421875 11.31640625 C-6.69350452 11.03761535 -8.79851823 10.61209423 -11 10 C-11 9.01 -11 8.02 -11 7 C-4.25 5.875 -4.25 5.875 -2 7 C-2.66 5.35 -3.32 3.7 -4 2 C-3.01 2 -2.02 2 -1 2 C-0.67 2.33 -0.34 2.66 0 3 C0 2.01 0 1.02 0 0 Z " fill="#247FD1" transform="translate(186,191)"/>
<path d="M0 0 C1.37478516 0.01740234 1.37478516 0.01740234 2.77734375 0.03515625 C3.69644531 0.04417969 4.61554688 0.05320312 5.5625 0.0625 C6.27277344 0.07410156 6.98304687 0.08570312 7.71484375 0.09765625 C7.71484375 2.73765625 7.71484375 5.37765625 7.71484375 8.09765625 C4.08484375 7.76765625 0.45484375 7.43765625 -3.28515625 7.09765625 C-3.61515625 8.08765625 -3.94515625 9.07765625 -4.28515625 10.09765625 C-4.14466107 8.61797301 -3.99760799 7.13891109 -3.84765625 5.66015625 C-3.76644531 4.83644531 -3.68523437 4.01273437 -3.6015625 3.1640625 C-3.15732198 0.26278802 -2.95940822 0.12647044 0 0 Z " fill="#86C8EF" transform="translate(79.28515625,113.90234375)"/>
<path d="M0 0 C-0.33 1.98 -0.66 3.96 -1 6 C-1.66 6 -2.32 6 -3 6 C-3.33 8.31 -3.66 10.62 -4 13 C-8.75 12.125 -8.75 12.125 -11 11 C-11 10.34 -11 9.68 -11 9 C-10.34 8.67 -9.68 8.34 -9 8 C-9 7.34 -9 6.68 -9 6 C-8.34 6 -7.68 6 -7 6 C-6.67 4.35 -6.34 2.7 -6 1 C-3 0 -3 0 0 0 Z " fill="#2B87D8" transform="translate(42,79)"/>
<path d="M0 0 C4.82360189 -0.19294408 8.49646738 0.24252386 13 2 C13 3.32 13 4.64 13 6 C9.04 5.67 5.08 5.34 1 5 C0.67 3.35 0.34 1.7 0 0 Z " fill="#EDF6F9" transform="translate(76,121)"/>
<path d="M0 0 C2.29633824 3.44450737 2.54016485 5.93812283 3 10 C0.36 10.99 -2.28 11.98 -5 13 C-6.25541557 9.23375329 -5.37061958 7.62811066 -4 4 C-3.01 4 -2.02 4 -1 4 C-1.33 3.01 -1.66 2.02 -2 1 C-1.34 0.67 -0.68 0.34 0 0 Z " fill="#2C92E3" transform="translate(72,94)"/>
<path d="M0 0 C0.495 0.165 0.99 0.33 1.5 0.5 C1.17 1.82 0.84 3.14 0.5 4.5 C-1.29158489 4.52696365 -3.08328473 4.54637917 -4.875 4.5625 C-5.87273437 4.57410156 -6.87046875 4.58570313 -7.8984375 4.59765625 C-10.5 4.5 -10.5 4.5 -12.5 3.5 C-12.5 2.51 -12.5 1.52 -12.5 0.5 C-8.76025568 -1.36987216 -4.03209172 -0.80641834 0 0 Z " fill="#F2F6F8" transform="translate(103.5,124.5)"/>
<path d="M0 0 C2.64 0 5.28 0 8 0 C7.67 2.64 7.34 5.28 7 8 C4.36 7.67 1.72 7.34 -1 7 C-0.67 4.69 -0.34 2.38 0 0 Z " fill="#34ACF6" transform="translate(85,139)"/>
<path d="M0 0 C2.31 0 4.62 0 7 0 C7 2.64 7 5.28 7 8 C4.36 7.67 1.72 7.34 -1 7 C-0.67 4.69 -0.34 2.38 0 0 Z " fill="#34ADF6" transform="translate(116,144)"/>
<path d="M0 0 C2.31 0.33 4.62 0.66 7 1 C7.04254356 2.99954746 7.04080783 5.00041636 7 7 C6.67 7.33 6.34 7.66 6 8 C3.66055264 7.71269945 1.3260857 7.38063221 -1 7 C-0.67 4.69 -0.34 2.38 0 0 Z " fill="#36AEF8" transform="translate(172,153)"/>
<path d="M0 0 C5.75 -0.125 5.75 -0.125 8 1 C7.67 3.31 7.34 5.62 7 8 C4.36 7.67 1.72 7.34 -1 7 C-0.67 4.69 -0.34 2.38 0 0 Z " fill="#35AEF8" transform="translate(159,151)"/>
<path d="M0 0 C2.31 0.33 4.62 0.66 7 1 C7 3.31 7 5.62 7 8 C1.25 8.125 1.25 8.125 -1 7 C-0.67 4.69 -0.34 2.38 0 0 Z " fill="#35AEF7" transform="translate(141,148)"/>
<path d="M0 0 C2.31 0 4.62 0 7 0 C7.125 5.75 7.125 5.75 6 8 C3.69 7.67 1.38 7.34 -1 7 C-0.67 4.69 -0.34 2.38 0 0 Z " fill="#35AEF7" transform="translate(98,141)"/>
<path d="M0 0 C2.31 0 4.62 0 7 0 C7 2.31 7 4.62 7 7 C3.94736336 7.98120464 2.05263664 7.98120464 -1 7 C-0.67 4.69 -0.34 2.38 0 0 Z " fill="#35AEF8" transform="translate(73,137)"/>
<path d="M0 0 C2.02408755 0.09002398 4.04544287 0.24641038 6.0625 0.4375 C7.71958984 0.59025391 7.71958984 0.59025391 9.41015625 0.74609375 C10.26480469 0.82988281 11.11945313 0.91367188 12 1 C12.33 2.65 12.66 4.3 13 6 C3.82713348 5.64989059 3.82713348 5.64989059 0.375 2.9375 C-0.305625 1.9784375 -0.305625 1.9784375 -1 1 C-0.67 0.67 -0.34 0.34 0 0 Z " fill="#F9FCFC" transform="translate(94,107)"/>
<path d="M0 0 C5.75 -0.125 5.75 -0.125 8 1 C7.67 3.31 7.34 5.62 7 8 C4.69 7.67 2.38 7.34 0 7 C0 4.69 0 2.38 0 0 Z " fill="#36AEF8" transform="translate(128,146)"/>
<path d="M0 0 C0.66 0.33 1.32 0.66 2 1 C1.67 1.66 1.34 2.32 1 3 C1.66 3 2.32 3 3 3 C3 4.65 3 6.3 3 8 C4.32 8.33 5.64 8.66 7 9 C6.67 9.66 6.34 10.32 6 11 C4.54119891 10.85892253 3.08296449 10.71197585 1.625 10.5625 C0.40683594 10.44068359 0.40683594 10.44068359 -0.8359375 10.31640625 C-3 10 -3 10 -5 9 C-4.75 7.125 -4.75 7.125 -4 5 C-1.9375 3.75 -1.9375 3.75 0 3 C0 2.01 0 1.02 0 0 Z " fill="#5EBDF3" transform="translate(163,96)"/>
<path d="M0 0 C2.31 0.33 4.62 0.66 7 1 C7 3.31 7 5.62 7 8 C1.25 8.125 1.25 8.125 -1 7 C-0.67 4.69 -0.34 2.38 0 0 Z " fill="#36B0F9" transform="translate(184,155)"/>
<path d="M0 0 C-0.33 1.32 -0.66 2.64 -1 4 C-2.32 4 -3.64 4 -5 4 C-5 4.99 -5 5.98 -5 7 C-5.969375 7.144375 -6.93875 7.28875 -7.9375 7.4375 C-10.86486773 7.67562341 -10.86486773 7.67562341 -12 9 C-12.99 9.495 -12.99 9.495 -14 10 C-14.33 8.02 -14.66 6.04 -15 4 C-13.02 4 -11.04 4 -9 4 C-8.67 3.01 -8.34 2.02 -8 1 C-5.29120665 -0.35439668 -2.99066732 -0.06501451 0 0 Z " fill="#1260BB" transform="translate(94,94)"/>
<path d="M0 0 C-0.33 0.99 -0.66 1.98 -1 3 C-2.65 3 -4.3 3 -6 3 C-6.33 3.99 -6.66 4.98 -7 6 C-7.99 6 -8.98 6 -10 6 C-10.33 6.66 -10.66 7.32 -11 8 C-10.67264472 5.05380252 -10.37532687 2.64639628 -8.875 0.0625 C-5.86231514 -1.64468809 -3.2689055 -0.67845209 0 0 Z " fill="#38ACF4" transform="translate(78,92)"/>
<path d="M0 0 C1.890625 0.21484375 1.890625 0.21484375 4 1 C5.046875 3.06640625 5.046875 3.06640625 5.75 5.5625 C5.99234375 6.38878906 6.2346875 7.21507813 6.484375 8.06640625 C6.65453125 8.70449219 6.8246875 9.34257813 7 10 C6.34 10 5.68 10 5 10 C5 9.34 5 8.68 5 8 C3.35 8.33 1.7 8.66 0 9 C-0.33 7.35 -0.66 5.7 -1 4 C-0.34 3.67 0.32 3.34 1 3 C0.67 2.01 0.34 1.02 0 0 Z " fill="#8AD2F3" transform="translate(167,90)"/>
<path d="M0 0 C2.97 0.99 5.94 1.98 9 3 C9 3.66 9 4.32 9 5 C8.34 5 7.68 5 7 5 C6.67 5.99 6.34 6.98 6 8 C4 7 4 7 1 5 C0.01 5 -0.98 5 -2 5 C-1.34 3.35 -0.68 1.7 0 0 Z " fill="#2B8FE0" transform="translate(25,90)"/>
<path d="M0 0 C-0.33 0.99 -0.66 1.98 -1 3 C-3.0625 3.6875 -3.0625 3.6875 -5 4 C-5 5.98 -5 7.96 -5 10 C-5.99 10 -6.98 10 -8 10 C-8.75 7.75 -8.75 7.75 -9 5 C-6.2713773 1.61274423 -4.40082727 0 0 0 Z " fill="#094FAE" transform="translate(28,84)"/>
<path d="M0 0 C-0.33 0.99 -0.66 1.98 -1 3 C-1.66 3 -2.32 3 -3 3 C-2.67 4.32 -2.34 5.64 -2 7 C-3.98 6.34 -5.96 5.68 -8 5 C-8 3.68 -8 2.36 -8 1 C-3.375 -1.125 -3.375 -1.125 0 0 Z " fill="#2575C7" transform="translate(36,82)"/>
<path d="M0 0 C2.64 0.33 5.28 0.66 8 1 C8.33 2.65 8.66 4.3 9 6 C4.545 5.01 4.545 5.01 0 4 C0 2.68 0 1.36 0 0 Z " fill="#F5FBFC" transform="translate(97,113)"/>
<path d="M0 0 C0.66 1.32 1.32 2.64 2 4 C2.33 2.68 2.66 1.36 3 0 C3.66 0.33 4.32 0.66 5 1 C5 2.32 5 3.64 5 5 C0.545 6.485 0.545 6.485 -4 8 C-3.67 7.01 -3.34 6.02 -3 5 C-2.34 5 -1.68 5 -1 5 C-1 4.34 -1 3.68 -1 3 C-1.66 3 -2.32 3 -3 3 C-2.67 2.34 -2.34 1.68 -2 1 C-1.34 1.33 -0.68 1.66 0 2 C0 1.34 0 0.68 0 0 Z " fill="#39A5ED" transform="translate(29,94)"/>
<path d="M0 0 C0.66 0.33 1.32 0.66 2 1 C4.09821215 0.60061233 4.09821215 0.60061233 6 0 C6.33 1.32 6.66 2.64 7 4 C6.360625 4.103125 5.72125 4.20625 5.0625 4.3125 C4.381875 4.539375 3.70125 4.76625 3 5 C2.67 5.99 2.34 6.98 2 8 C1.67 7.34 1.34 6.68 1 6 C0.34 6 -0.32 6 -1 6 C-0.67 4.02 -0.34 2.04 0 0 Z " fill="#1466C0" transform="translate(66,105)"/>
<path d="M0 0 C0.99 0.33 1.98 0.66 3 1 C3 1.66 3 2.32 3 3 C3.99 3 4.98 3 6 3 C6.33 4.32 6.66 5.64 7 7 C5.68 7.33 4.36 7.66 3 8 C3 7.34 3 6.68 3 6 C2.01 6 1.02 6 0 6 C-0.66 4.68 -1.32 3.36 -2 2 C-1.34 2 -0.68 2 0 2 C0 1.34 0 0.68 0 0 Z " fill="#1261BC" transform="translate(177,191)"/>
<path d="M0 0 C-0.3125 2.375 -0.3125 2.375 -1 5 C-4.4352048 7.29013653 -5.985331 7.17842973 -10 7 C-3.18421053 0 -3.18421053 0 0 0 Z " fill="#50B7F6" transform="translate(197,197)"/>
<path d="M0 0 C2 2 2 2 2 5 C-1.3 4.34 -4.6 3.68 -8 3 C-5.45189726 -0.82215411 -4.39145359 -1.46381786 0 0 Z " fill="#D5ECF5" transform="translate(174,103)"/>
<path d="M0 0 C2.31 0 4.62 0 7 0 C7 1.32 7 2.64 7 4 C4.69 4 2.38 4 0 4 C0 2.68 0 1.36 0 0 Z " fill="#F9FCFD" transform="translate(78,116)"/>
<path d="M0 0 C0 0.99 0 1.98 0 3 C-2.97 3 -5.94 3 -9 3 C-9 2.01 -9 1.02 -9 0 C-5.93109813 -1.53445094 -3.29905734 -0.54984289 0 0 Z " fill="#2886DA" transform="translate(184,198)"/>
<path d="M0 0 C1.0625 1.8125 1.0625 1.8125 2 4 C1.67 4.99 1.34 5.98 1 7 C-0.65 7 -2.3 7 -4 7 C-4.66 5.68 -5.32 4.36 -6 3 C-5.195625 2.690625 -4.39125 2.38125 -3.5625 2.0625 C-1.10919595 1.23664655 -1.10919595 1.23664655 0 0 Z " fill="#1162BD" transform="translate(188,187)"/>
<path d="M0 0 C0.33 0.66 0.66 1.32 1 2 C1.99 1.67 2.98 1.34 4 1 C4.33 2.32 4.66 3.64 5 5 C3.35 5.66 1.7 6.32 0 7 C-0.66 5.35 -1.32 3.7 -2 2 C-1.34 2 -0.68 2 0 2 C0 1.34 0 0.68 0 0 Z " fill="#217DD1" transform="translate(21,96)"/>
<path d="M0 0 C1.32 0 2.64 0 4 0 C4.38218767 1.65614657 4.71395102 3.32457024 5 5 C4.67 5.33 4.34 5.66 4 6 C4 6.99 4 7.98 4 9 C3.01 8.67 2.02 8.34 1 8 C0.67 5.36 0.34 2.72 0 0 Z " fill="#2E96E5" transform="translate(73,94)"/>
<path d="M0 0 C2.12508244 3.18762365 2.5020163 5.26512223 3 9 C2.34 9 1.68 9 1 9 C1 7.68 1 6.36 1 5 C-2.0745356 5.7763932 -2.0745356 5.7763932 -4 8 C-4.33 7.34 -4.66 6.68 -5 6 C-4.67 5.34 -4.34 4.68 -4 4 C-3.01 4 -2.02 4 -1 4 C-1.33 3.01 -1.66 2.02 -2 1 C-1.34 0.67 -0.68 0.34 0 0 Z " fill="#217ACE" transform="translate(72,94)"/>
<path d="M0 0 C2.475 0.99 2.475 0.99 5 2 C4.67 3.65 4.34 5.3 4 7 C2.68 7 1.36 7 0 7 C0 5 0 5 2 3 C1.34 3 0.68 3 0 3 C0 2.01 0 1.02 0 0 Z " fill="#0954B4" transform="translate(75,98)"/>
<path d="M0 0 C0.99 0.33 1.98 0.66 3 1 C3 1.66 3 2.32 3 3 C4.32 3.66 5.64 4.32 7 5 C3.7 4.34 0.4 3.68 -3 3 C-2.01 2.01 -1.02 1.02 0 0 Z " fill="#0D5AB6" transform="translate(28,87)"/>
<path d="M0 0 C0.66 0 1.32 0 2 0 C2.66 1.98 3.32 3.96 4 6 C3.01 6.33 2.02 6.66 1 7 C1 6.01 1 5.02 1 4 C0.01 3.67 -0.98 3.34 -2 3 C-1.34 2.67 -0.68 2.34 0 2 C0 1.34 0 0.68 0 0 Z " fill="#399BE6" transform="translate(194,189)"/>
<path d="M0 0 C0.33 0.66 0.66 1.32 1 2 C3.02463255 2.65213292 3.02463255 2.65213292 5 3 C4.67 3.66 4.34 4.32 4 5 C2.35 4.67 0.7 4.34 -1 4 C-1 3.34 -1 2.68 -1 2 C-1.66 1.67 -2.32 1.34 -3 1 C-2.01 0.67 -1.02 0.34 0 0 Z " fill="#8BC6E9" transform="translate(165,102)"/>
<path d="M0 0 C-2.46278801 2.46278801 -4.70676982 2.99771255 -8 4 C-8.33 3.01 -8.66 2.02 -9 1 C-5.8035914 -0.06546953 -3.34252724 -0.07427838 0 0 Z " fill="#2B86D8" transform="translate(75,103)"/>
<path d="M0 0 C2.38564077 0.57584432 4.66682784 1.22227595 7 2 C7 2.66 7 3.32 7 4 C6.34 4 5.68 4 5 4 C4.67 4.99 4.34 5.98 4 7 C3.34 6.67 2.68 6.34 2 6 C2 4.35 2 2.7 2 1 C1.34 0.67 0.68 0.34 0 0 Z " fill="#2178CC" transform="translate(27,91)"/>
</svg>
